/* XPM */
static char *ap[] = {
/* columns rows colors chars-per-pixel */
"32 32 120 2 ",
"   c #010101",
".  c #020202",
"X  c #0C0C0C",
"o  c gray6",
"O  c gray7",
"+  c gray13",
"@  c #222222",
"#  c #232323",
"$  c gray14",
"%  c #252525",
"&  c gray15",
"*  c #272727",
"=  c gray16",
"-  c #2A2A2A",
";  c gray17",
":  c #2C2C2C",
">  c #2D2D2D",
",  c gray18",
"<  c #2F2F2F",
"1  c gray19",
"2  c #313131",
"3  c #323232",
"4  c gray20",
"5  c #343434",
"6  c #353535",
"7  c gray21",
"8  c gray22",
"9  c gray23",
"0  c #3C3C3C",
"q  c #3E3E3E",
"w  c #3E4C3A",
"e  c #3F4E3A",
"r  c gray25",
"t  c #444444",
"y  c gray27",
"u  c #464646",
"i  c #484848",
"p  c #4C4C4C",
"a  c #4E4E4E",
"s  c gray31",
"d  c #4B5948",
"f  c #505050",
"g  c #515151",
"h  c gray32",
"j  c #535353",
"k  c #555555",
"l  c #565656",
"z  c gray34",
"x  c #585858",
"c  c #5A5A5A",
"v  c gray36",
"b  c #5D5D5D",
"n  c gray37",
"m  c #5F5F5F",
"M  c #5A6458",
"N  c #62715E",
"B  c #606060",
"V  c #626262",
"C  c gray39",
"Z  c #646464",
"A  c #656565",
"S  c gray40",
"D  c #676767",
"F  c #686868",
"G  c DimGray",
"H  c gray42",
"J  c #6C6C6C",
"K  c #6D6D6D",
"L  c #6F6F6F",
"P  c #677165",
"I  c gray44",
"U  c #717171",
"Y  c #727272",
"T  c gray45",
"R  c #747474",
"E  c gray46",
"W  c #767676",
"Q  c #777777",
"!  c gray47",
"~  c #797979",
"^  c gray48",
"/  c #7B7B7B",
"(  c gray49",
")  c gray54",
"_  c #8E8E8E",
"`  c #909090",
"'  c gray57",
"]  c #929292",
"[  c gray58",
"{  c #959595",
"}  c gray59",
"|  c #979797",
" . c gray60",
".. c #A0A0A0",
"X. c gray64",
"o. c gray67",
"O. c gray69",
"+. c #B1B1B1",
"@. c gray70",
"#. c #B4B4B4",
"$. c gray71",
"%. c #B6B6B6",
"&. c #B7B7B7",
"*. c gray72",
"=. c #B9B9B9",
"-. c gray73",
";. c #BBBBBB",
":. c #BCBCBC",
">. c gray75",
",. c gray77",
"<. c #C5C5C5",
"1. c #C6C6C6",
"2. c gray78",
"3. c #CACACA",
"4. c #CBCBCB",
"5. c #CECECE",
"6. c gray86",
"7. c gray87",
"8. c #DFDFDF",
"9. c None",
/* pixels */
"9.9.9.9.9.9.9.9.9.9.9.9.9.9.9.9.9.9.9.9.9.9.9.9.  9.9.9.9.9.9.9.",
"9.9.9.9.9.9.9.9.9.9.9.9.9.9.9.9.9.9.9.9.9.9.9.9.    9.9.9.9.9.9.",
"9.9.9.9.9.9.9.9.9.9.9.9.9.9.9.9.9.9.9.9.9.9.9.9.    9.9.9.9.9.9.",
"9.9.9.9.9.9.9.9.9.9.9.9.9.9.9.9.9.9.9.9.9.9.9.9.    9.9.9.9.9.9.",
"9.9.9.9.9.9.9.9.9.9.9.9.9.9.9.9.9.9.9.9.9.9.9.9.  . 9.9.9.9.9.9.",
"9.9.9.9.9.9.9.9.9.9.9.9.9.9.9.9.9.9.9.9.9.9.9.9.  . 9.9.9.9.9.9.",
"9.9.9.9.9.9.9.9.9.9.9.9.9.9.9.9.9.9.9.9.9.9.9.9.  . 9.9.9.9.9.9.",
"9.9.9.9.9.9.9.9.9.9.9.9.9.9.9.9.9.9.9.9.9.9.9.9.  . 9.9.9.9.9.9.",
"9.9.9.9.9.9.9.9.9.9.9.9.9.9.9.9.9.9.9.9.9.9.9.9.  . 9.9.9.9.9.9.",
"9.9.9.9.9.9.9.9.9.9.9.9.9.9.9.9.9.9.9.9.9.9.9.9.  . 9.9.9.9.9.9.",
"9.9.9.9.9.9.9.9.9.9.9.9.9.9.9.9.9.9.9.9.9.9.9.9.  . 9.9.9.9.9.9.",
"9.9.9.9.9.9.9.9.9.9.9.9.9.9.9.9.9.9.9.9.9.9.9.9.  . 9.9.9.9.9.9.",
"9.9.9.9.9.9.9.9.9.9.9.9.9.9.9.9.9.9.9.9.9.9.9.9.    9.9.9.9.9.9.",
"9.9.9.9.9.9.9.9.9.9.9.9.9.9.9.9.9.9.9.9.9.9.9.9.    9.9.9.9.9.9.",
"9.9.9.9.9.9.9.9.9.9.9.9.9.9.9.9.9.9.9.9.9.9.9.9.    9.9.9.9.9.9.",
"9.9.9.9.: : : : : ; ; : : : : : 9.9.9.9.9.9.9.9.X O 9.9.9.9.9.9.",
"9.9.V : : : & * + & % + * % + - $ + ; + + ; + + ; + : : : 9.9.9.",
"9.9.x : : : : : : : : : : : : : : : : : : : : : : : : : : s 9.9.",
"9.9.9 : : : : : : : : : : : : : : : : : : : : : : : : : : 7 9.9.",
"9.9.: : : : : : : : : : : : : : : : : : : : : : : : : : : : 9.9.",
"9.E : : : : : : : : : : : : : : : : : : : : : : : : : : : : } 9.",
"9.x : : : : : : : : : : : : : : : : : : : : : : : : : : : : Y 9.",
"9.r : : : : : : : : : : : : : : : : : : : : : : : : : : : : k 9.",
"9.: : : : : : : : : : : : : : : : : : : : : : : : : : : : : 8 9.",
"/ 1 2 2 : : : : : : : : : : : : : : : : : : ; ; : : ; ; : ; : ,.",
"/ : : : < 2 1 1 3 4 3 4 4 4 4 4 7 1 7 7 7 1 7 7 7 7 7 7 7 7 t } ",
"k O O O O O O O O O O O O O O O O O O O O O O O O O O O O O O s ",
"8... .| | } } } ] ` ` _ ) ^ ! W E Y Y L L L L F F S S S S V ^ 2.",
"8.1.,.m c v m v M B B C F F S F N P J L Y L Y Y E ^ ^ ^ / 5.1.8.",
"8.,.4.c v k k s d p f p f f y y w w i q t q q q 7 7 1 1 1 X.1.8.",
"9.o.O.O.O.O.+.$.$.+.$.$.$.%.%.%.=.=.*.*.*.*.:.*.*.:.:.:.:.*.2.8.",
"9.m B B B m B B B B B B B B n B B B M V m V V m m V m m V m V 9."
};
