/* XPM */
static char *group[] = {
/* columns rows colors chars-per-pixel */
"32 32 91 1 ",
"  c #2E5F8D",
". c #305F8A",
"X c #2C608F",
"o c #2C6192",
"O c #316697",
"+ c #326798",
"@ c #356A9B",
"# c #396D9E",
"$ c #3E72A2",
"% c #40719F",
"& c #4275A5",
"* c #4678A7",
"= c #4679A8",
"- c #4B7DAA",
"; c #4F81AF",
": c #5583AD",
"> c #5884AD",
", c #5385B3",
"< c #5987B2",
"1 c #5789B6",
"2 c #5A8AB6",
"3 c #5C8DBA",
"4 c #5F90BC",
"5 c #6F8CA6",
"6 c #6E8EAC",
"7 c #718AA3",
"8 c #638EB5",
"9 c #628FB9",
"0 c #6B91B4",
"q c #6393BF",
"w c #6B95BC",
"e c #6E98BF",
"r c #7295B4",
"t c #749CBF",
"y c #6696C2",
"u c #6897C2",
"i c #6A9AC5",
"p c #6F9EC9",
"a c #719CC4",
"s c #7C9FC0",
"d c #709FCA",
"f c #7FA4C7",
"g c #75A2CC",
"h c #7AA3C9",
"j c #79A7D1",
"k c #7CAAD3",
"l c #9C9C9C",
"z c #869FB3",
"x c #8A9FB3",
"c c #8CA1B5",
"v c #9AA9B7",
"b c #90A7BC",
"n c #9DADBB",
"m c #AFAFAF",
"M c #A0AFBD",
"N c #A4B1BD",
"B c #A9B2BA",
"V c #B3B3B3",
"C c #BBBBBB",
"Z c #82A5C5",
"A c #89AAC8",
"S c #93ACC2",
"D c #9CB2C6",
"F c #97B1C8",
"G c #9FB8CE",
"H c #82ADD4",
"J c #85B2DA",
"K c #8BB3D8",
"L c #A5B5C5",
"P c #A8B5C0",
"I c #A2B7CA",
"U c #A7B9C8",
"Y c #AABCCD",
"T c #A7BED4",
"R c #AEC1D2",
"E c #B1C1D0",
"W c #BAC7D2",
"Q c #C4C4C4",
"! c #C3C9CF",
"~ c gray80",
"^ c #C4CCD2",
"/ c #CDD1D4",
"( c #CDD3DA",
") c #D4D4D4",
"_ c #D1D5D8",
"` c #D5D8DB",
"' c #DBDBDB",
"] c #E3E3E3",
"[ c #EBEBEB",
"{ c #F2F2F2",
"} c None",
/* pixels */
"}}}}}}}}}}}}}}}}}}}}}}}}}}}}}}}}",
"}}}}}}}}}}}}}}}}}}}}}}}}}}}}}}}}",
"}}']]][[[{{}}}}}}}}}}}}}}}}}}}}}",
"}'WRYIDSScP{}}}}}}}}}}}}}}}}}}}}",
"})Rkgi3;&#z[}}}}}}}}}}}}}}}}}}}}",
"}/Giu4,-$Oz[}}}}}}}}}}}}}}}}}}}}",
"}/F21;=$@ox[}}}}}}}}}}}}}}}}}}}}",
"})A=&$#+X.c]}}}}}}}}}}}}}}}}}}}}",
"})Yrr66657N]}}}}}}}}}}}}}}}}}}}}",
"}''')))))`''}}}}}}}}}}}}}}}}}}}}",
"}})~Q~~QQQ~}}}}}}}}}}}}}}}}}}}}}",
"}]''''')))~)}}]]]]][][[[[[{{{}}}",
"'''))''))/~QQ`''']]]][][[[[{{{}}",
"~/~QQ~QQCCCCV`/EEYYYULLLLncxB{}}",
"}}QCCCVVVVV}}))KJHjgghhZZAf&v{}}",
"}}}}}}}}}}}}}`/Hjjgpiueeesf0v{}}",
"}}}}}l}}}}}}})/hgpiuy312380rM[}}",
"}}}}}l}}}}}}}//auyy421;----:M[}}",
"}}}}}l}}}}}}}~/e3311,;-*&##%N]}}",
"}}}}}l}}}}}}}~/w91;--=&$#OOoN]}}",
"}}}}}l}}}}}}})_>w8<-&##@OoX P]}}",
"}}}}}l}}}}}}})`-&:>-&#OoXX .P]}}",
"}}}}}l}}}}}}})'/((/^^^^!^^^!/'}}",
"}}}}}l}}}}}}})]]'''`)))))))'''}}",
"}}}}}lllllll}~]]'''')'))))))''}}",
"}}}}}}}}}}}}}}CmmmmmmmmmmmmVC}}}",
"}}}}}}}}}}}}]]''')')))))))//~~/}",
"}}}}}}}}}}}}']]]''']']]'''`))))Q",
"}}}}}}}}}}}})]''))~)')~~~~QQQQQQ",
"}}}}}}}}}}}}))))~~Q~/QQCCCCCCVCC",
"}}}}}}}}}}}}QQQQQCQQQCCCCCCVCVVV",
"}}}}}}}}}}}}}QCCCCCCVCCVVVVmmm}}"
};
