/* XPM */
static char *invitation[] = {
/* columns rows colors chars-per-pixel */
"32 32 151 2 ",
"   c #123D09",
".  c #13420C",
"X  c #144A0D",
"o  c #17500C",
"O  c #19530D",
"+  c #1C5B0D",
"@  c #114B10",
"#  c #135413",
"$  c #1E5214",
"%  c #1E571B",
"&  c #115D19",
"*  c #1C5E1F",
"=  c #255B1C",
"-  c #295E1C",
";  c #1E610D",
":  c #196412",
">  c #11661D",
",  c #126B1E",
"<  c #1F7515",
"1  c #14721F",
"2  c #1B7318",
"3  c #2E661D",
"4  c #28701A",
"5  c #157520",
"6  c #167C21",
"7  c #1B7E24",
"8  c #2E6426",
"9  c #2F672D",
"0  c #346D27",
"q  c #24752F",
"w  c #207A2B",
"e  c #357526",
"r  c #39752C",
"t  c #277231",
"y  c #3F7D32",
"u  c #30793A",
"i  c #467E37",
"p  c #3B7F44",
"a  c #1F841C",
"s  c #178022",
"d  c #198423",
"f  c #1A8B24",
"g  c #1D9425",
"h  c #1E9C27",
"j  c #308139",
"k  c #2C9934",
"l  c #31913A",
"z  c #329A3A",
"x  c #1FA027",
"c  c #21A428",
"v  c #23AC2A",
"b  c #24B42B",
"n  c #26BC2C",
"m  c #38B43E",
"M  c #33BE39",
"N  c #438136",
"B  c #27C02D",
"V  c #399741",
"C  c #3CB443",
"Z  c #4A8144",
"A  c #45844C",
"S  c #408C48",
"D  c #44914C",
"F  c #4F914A",
"G  c #43994B",
"H  c #4A8C52",
"J  c #54955C",
"K  c #67985F",
"L  c #4FA555",
"P  c #55A45B",
"I  c #4CBA52",
"U  c #5C9763",
"Y  c #5B9B62",
"T  c #609763",
"R  c #65956C",
"E  c #629E69",
"W  c #6E9D6C",
"Q  c #5DB963",
"!  c #66A26E",
"~  c #64B369",
"^  c #6CA672",
"/  c #78A571",
"(  c #73AA7A",
")  c #6EB572",
"_  c #6FBC74",
"`  c #72B877",
"'  c #76B27B",
"]  c #7CB57E",
"[  c #72B978",
"{  c #78BD7D",
"}  c #3EC144",
"|  c #4DC352",
" . c #5EC062",
".. c #73C077",
"X. c #76C07B",
"o. c #7EA283",
"O. c #7EB183",
"+. c #7FBC83",
"@. c #7FC283",
"#. c #80B185",
"$. c #8AB78F",
"%. c #90B28D",
"&. c #8CA890",
"*. c #8CB991",
"=. c #93B096",
"-. c #92BA95",
";. c #97BF9B",
":. c #9ABB9E",
">. c #B3BDB5",
",. c #83C886",
"<. c #86C48A",
"1. c #88C18C",
"2. c #8AD18D",
"3. c #8EC792",
"4. c #94C597",
"5. c #97C69A",
"6. c #9BC29E",
"7. c #95CA99",
"8. c #9EC9A1",
"9. c #A3C6A7",
"0. c #A7CCAA",
"q. c #ABCBAD",
"w. c #A3D5A6",
"e. c #B3CEB5",
"r. c #B7D5B9",
"t. c #BDD4BF",
"y. c #BCDEBE",
"u. c #BFD5C1",
"i. c #C0CAC1",
"p. c #CDCDCD",
"a. c #C2D6C3",
"s. c #C6DFC8",
"d. c #CBDBCC",
"f. c #CEDBD0",
"g. c #D1D1D1",
"h. c #D2DED3",
"j. c #D8DBD8",
"k. c #CBE0CD",
"l. c #D5E5D7",
"z. c #D7E1D8",
"x. c #DAE3DA",
"c. c #DDECDE",
"v. c #DFEAE0",
"b. c #E4E5E4",
"n. c #E2EBE3",
"m. c #EBEBEB",
"M. c #ECF2EC",
"N. c #F4F4F4",
"B. c #F6F9F6",
"V. c #FAFBFA",
"C. c None",
/* pixels */
"C.C.C.C.C.C.C.C.C.C.C.C.C.C.C.C.C.C.C.C.C.C.C.C.C.C.C.C.C.C.C.C.",
"C.C.C.C.C.C.C.C.C.C.C.C.C.C.C.C.C.C.C.C.C.C.C.C.C.C.C.C.C.C.C.C.",
"C.C.C.C.C.C.C.C.C.C.C.C.C.C.C.C.C.C.C.C.C.C.C.C.C.C.C.C.C.C.C.C.",
"C.C.C.C.C.C.C.C.C.C.C.C.C.C.C.C.C.C.C.C.C.C.C.C.C.C.C.C.C.C.C.C.",
"C.C.C.C.C.C.C.C.C.C.C.C.C.C.0 r r 3 C.C.C.C.C.C.C.C.C.C.C.C.C.C.",
"C.C.C.C.C.C.C.C.C.C.C.y K %.q.q.9.-.W Z 0 C.C.C.C.C.C.C.C.C.C.C.",
"C.C.C.C.C.C.C.C.C.i / a.d.f.d.t.e.9.;.$.O.Z - C.C.C.C.C.C.C.C.C.",
"C.C.C.C.C.C.C.C.i 9.t.d.x.b.h.a.e.0.;.*.#.( T 8 C.C.C.C.C.C.C.C.",
"C.C.C.C.C.C.C.N 8.q.r.a.f.n.B.V.V.M.z.6.O.( ! U = C.C.C.C.C.C.C.",
"C.C.C.C.C.C.e ] 7.8.w.r.B.V.c.f.M.V.B.N.6.^ E J A $ C.C.C.C.C.C.",
"C.C.C.C.C.C.F #.<.3.7.c.V.V.s.5.5.N.N.N.m.! Y J H 9 C.C.C.C.C.C.",
"C.C.C.C.C.4 ~ ` { @.,.M.V.B.M.1.#.x.M.N.M.( J H A p $ C.C.C.C.C.",
"C.C.C.C.C.< v C Q _ ..y.N.N.n.` _ n.M.m.m.G 7 w q u % C.C.C.C.C.",
"C.C.C.C.C.a v b n M } | 2.w.Q m I m.m.m.x.d 6 1 , > * C.C.C.C.C.",
"C.C.C.C.+ h c v b n n B B n b b <.m.b.b.P d 6 5 , > >   C.C.C.C.",
"C.C.C.C.; h x c v b b b b b b b f.b.h.L d 6 5 , > > > . C.C.C.C.",
"C.C.C.C.; g h c c v v b b v c X.b.t.z f d 6 1 > > > > . C.C.C.C.",
"C.C.C.C.+ f g h x x c c c c x a.a.k f d s 5 1 > > > >   C.C.C.C.",
"C.C.C.C.C.2 f g h h h x h h h j.] f d s 6 1 1 > > > # C.C.C.C.C.",
"C.C.C.C.C.: f f f g g h g g g ' V d 6 6 1 , > > > > @ C.C.C.C.C.",
"C.C.C.C.C.+ d d f f f f f f f l d s 6 1 1 > > > > >   C.C.C.C.C.",
"C.C.C.C.C.C.: 6 d s d d d d :.g.i.S 1 , > > > > > @ C.C.C.C.C.C.",
"C.C.C.C.C.C.O , 6 s 6 6 6 D g.g.g.=., > > > > > &   C.C.C.C.C.C.",
"C.C.C.C.C.C.C.O 1 1 1 1 1 j p.p.p.o.> > > > > >   C.C.C.C.C.C.C.",
"C.C.C.C.C.C.C.C.o > , , , , R >.&.t > > > > & . C.C.C.C.C.C.C.C.",
"C.C.C.C.C.C.C.C.C.X O > > > > > > > > > > @   C.C.C.C.C.C.C.C.C.",
"C.C.C.C.C.C.C.C.C.C.C.X @ # > > > > # @   C.C.C.C.C.C.C.C.C.C.C.",
"C.C.C.C.C.C.C.C.C.C.C.C.C.C.. .     C.C.C.C.C.C.C.C.C.C.C.C.C.C.",
"C.C.C.C.C.C.C.C.C.C.C.C.C.C.C.C.C.C.C.C.C.C.C.C.C.C.C.C.C.C.C.C.",
"C.C.C.C.C.C.C.C.C.C.C.C.C.C.C.C.C.C.C.C.C.C.C.C.C.C.C.C.C.C.C.C.",
"C.C.C.C.C.C.C.C.C.C.C.C.C.C.C.C.C.C.C.C.C.C.C.C.C.C.C.C.C.C.C.C.",
"C.C.C.C.C.C.C.C.C.C.C.C.C.C.C.C.C.C.C.C.C.C.C.C.C.C.C.C.C.C.C.C."
};
