/* XPM */
static char *laptop[] = {
/* columns rows colors chars-per-pixel */
"32 32 172 2 ",
"   c #030303",
".  c #0C0C0C",
"X  c #100F0F",
"o  c #131313",
"O  c #1B1B1B",
"+  c #211F1F",
"@  c #171E2A",
"#  c #1F2125",
"$  c #1C232C",
"%  c #1C2A32",
"&  c #15233C",
"*  c #1F2E38",
"=  c #232323",
"-  c #292526",
";  c #2D2B2B",
":  c #312F2F",
">  c #2C3030",
",  c #283938",
"<  c #353333",
"1  c #3A3636",
"2  c #3E3B3B",
"3  c #413E3E",
"4  c #172641",
"5  c #182644",
"6  c #1C2C40",
"7  c #1A2B49",
"8  c #183454",
"9  c #1A365C",
"0  c #2B3240",
"q  c #143573",
"w  c #1C3C7A",
"e  c #453C41",
"r  c #493D45",
"t  c #543E4F",
"y  c #603F5E",
"u  c #623D61",
"i  c #26454E",
"p  c #274A50",
"a  c #33415C",
"s  c #1C4260",
"d  c #354A73",
"f  c #285C75",
"g  c #357071",
"h  c #444242",
"j  c #494545",
"k  c #4C4B4B",
"l  c #574C54",
"z  c #5B4558",
"x  c #5D4D5D",
"c  c #555454",
"v  c #585757",
"b  c #5C565C",
"n  c #5C5A5A",
"m  c #61425F",
"M  c #664463",
"N  c #6A4767",
"B  c #654E65",
"V  c #6B466A",
"C  c #6A4D6A",
"Z  c #714D6F",
"A  c #655365",
"S  c #675867",
"D  c #695369",
"F  c #685868",
"G  c #70516C",
"H  c #724E70",
"J  c #6B6666",
"K  c #757575",
"L  c #787777",
"P  c #7E7D7D",
"I  c #154381",
"U  c #164295",
"Y  c #1E5B96",
"T  c #16509A",
"R  c #195598",
"E  c #244481",
"W  c #2F4B83",
"Q  c #214A96",
"!  c #31549A",
"~  c #21659E",
"^  c #2E7597",
"/  c #1445A1",
"(  c #1949A3",
")  c #104FAC",
"_  c #204EA4",
"`  c #2954A7",
"'  c #315AAA",
"]  c #4362A1",
"[  c #416DAE",
"{  c #5673AD",
"}  c #0B57CF",
"|  c #1E58C6",
" . c #245BC5",
".. c #295EC4",
"X. c #1865C3",
"o. c #2E62C5",
"O. c #3264C5",
"+. c #3A6AC5",
"@. c #095FF3",
"#. c #1B7CEC",
"$. c #0F6BF4",
"%. c #1575F4",
"&. c #1779F3",
"*. c #1B7DF3",
"=. c #406EC5",
"-. c #4470C5",
";. c #4A75C6",
":. c #507BC6",
">. c #527AC9",
",. c #419496",
"<. c #6F8AB9",
"1. c #45ABBF",
"2. c #3098DF",
"3. c #1D82F3",
"4. c #2187F3",
"5. c #258DF2",
"6. c #3D87F1",
"7. c #2790F2",
"8. c #2B94F2",
"9. c #2E9AF1",
"0. c #319FF1",
"q. c #36A1E1",
"w. c #3EB4EF",
"e. c #33A3F1",
"r. c #3AADF0",
"t. c #5480C7",
"y. c #5C84C9",
"u. c #6487CC",
"i. c #638ACB",
"p. c #6A8ECD",
"a. c #6F94CC",
"s. c #7090CF",
"d. c #749ACF",
"f. c #7396D0",
"g. c #7C9DD2",
"h. c #41A4C1",
"j. c #429DF3",
"k. c #6A9BEC",
"l. c #58A6EF",
"z. c #40B6EF",
"x. c #43BBEF",
"c. c #4BA1F1",
"v. c #53A5F1",
"b. c #60A7ED",
"n. c #6AA8EB",
"m. c #78A6E4",
"M. c #71A8E8",
"N. c #77A9F0",
"B. c #5AD8DD",
"V. c #46C0EE",
"C. c #4BC7EE",
"Z. c #4DCAEE",
"A. c #54D3ED",
"S. c #57D9ED",
"D. c #5BDFEC",
"F. c #848484",
"G. c #8B8B8B",
"H. c gray60",
"J. c #A3A2A2",
"K. c #A8A7A7",
"L. c #83A3D4",
"P. c #8AAAD6",
"I. c #8EACDB",
"U. c #90AFD7",
"Y. c #94AFDC",
"T. c #97B6DA",
"R. c #9EBADC",
"E. c #95B0E6",
"W. c #99BCEA",
"Q. c #A4BFE0",
"!. c #ADC4E4",
"~. c None",
/* pixels */
"~.~.~.~.~.~.~.~.~.~.~.~.~.~.~.~.~.~.~.; ~.~.~.~.~.~.~.~.~.~.~.~.",
"~.~.~.~.~.~.~.~.~.~.~.~.~.~.~.~.- = + @ ~.~.~.~.~.~.~.~.~.~.~.~.",
"~.~.~.~.~.~.~.~.~.~.~.~.~.- = + & q / U ~.~.~.~.~.~.~.~.~.~.~.~.",
"~.~.~.~.~.~.~.~.~.~.- = + & q ( |  .| Q ~.~.~.~.~.~.~.~.~.~.~.~.",
"~.~.~.~.~.~.~.- = + & w R  ...o.o.O.+.! ~.~.~.~.~.~.~.~.~.~.~.~.",
"~.~.~.~.- = O 5 w ` O.O.+.+.=.-.-.:.>.] ~.~.~.~.~.~.~.~.~.~.~.~.",
"~.~.- O 7 E ' +.+.-.;.:.>.y.y.i.i.p.s.{ ~.~.~.~.~.~.~.~.~.~.~.~.",
"~.~.= W -.;.;.>.t.i.p.a.d.g.L.L.P.U.Y.<.~.~.~.~.~.~.~.~.~.~.~.~.",
"~.~.~.d u.u.p.f.g.L.P.I.T.R.!.!.!.W.N.[ ~.~.~.~.~.~.~.~.~.~.~.~.",
"~.~.~.a g.L.I.I.m.M.n.b.l.v.j.j.8.4.*.T ~.~.~.~.~.~.~.~.~.~.~.~.",
"~.~.~.0 E.k.6.*.3.5.8.9.0.e.e.9.9.8.5.R ~.~.~.~.~.~.~.~.~.~.~.~.",
"~.~.O # @.$.%.3.7.8.e.e.r.r.r.r.e.0.9.Y ~.~.~.~.~.~.~.~.~.~.~.~.",
"~.O O = } %.3.5.9.e.r.w.x.x.x.x.z.r.2.s ~.~.~.~.~.~.~.~.~.~.~.~.",
"~.o o = ) %.3.8.9.r.z.V.C.Z.Z.Z.V.^ % O O ~.~.~.~.~.~.~.~.~.~.~.",
"~.~.O = I *.5.9.e.w.x.Z.A.S.S.1.i h < o O - k h ~.~.~.~.~.~.~.~.",
"~.~.o O 9 3.5.9.r.x.Z.A.D.B.g < k + = O 3 C B N r 3 ~.~.~.~.~.~.",
"~.~.o + 6 3.7.0.r.V.Z.S.,., k : < k > l C A D A A z < < + ~.~.~.",
"~.~.~.+ $ 3.7.0.r.w.h.p 3 h O k < 1 N D A D A A V < : ; X   . ~.",
"~.~.~.O # 3.7.9.q.f > c + 2 n O e G A D D A D A M < ; - .   X ~.",
"~.~.~.o + X.5.~ * k < X O < X m A B D D C B D u 1 : - =   X o ~.",
"~.~.~.~.# w 8 > k X o o . = C A A D A A A v v P J.J < X . o ~.~.",
"~.~.~.~.+ + O . = K = o z D D S C D D x v k P K.G.F.; . X ~.~.~.",
"~.~.~.~.O O o o O o h G D A D A D A c n h G.J.H.F.> X X ~.~.~.~.",
"~.~.~.~.~.o X # ; J H S A D F C D A B 3 1 c L L ; . X ~.~.~.~.~.",
"~.~.~.~.~.~.~.X . < J G Z b b D A V 3 1 < < +   . X ~.~.~.~.~.~.",
"~.~.~.~.~.~.~.~.~.. X 3 n V G D m 3 3 1 ; X   . X ~.~.~.~.~.~.~.",
"~.~.~.~.~.~.~.~.~.~.~.  O j k t h 3 - X     . X ~.~.~.~.~.~.~.~.",
"~.~.~.~.~.~.~.~.~.~.~.~..   = 1 O         . o ~.~.~.~.~.~.~.~.~.",
"~.~.~.~.~.~.~.~.~.~.~.~.~.~.  . X       . X ~.~.~.~.~.~.~.~.~.~.",
"~.~.~.~.~.~.~.~.~.~.~.~.~.~.~.~.  . X   ~.~.~.~.~.~.~.~.~.~.~.~.",
"~.~.~.~.~.~.~.~.~.~.~.~.~.~.~.~.~.. X ~.~.~.~.~.~.~.~.~.~.~.~.~.",
"~.~.~.~.~.~.~.~.~.~.~.~.~.~.~.~.~.~.~.~.~.~.~.~.~.~.~.~.~.~.~.~."
};
