/* XPM */
static char *wpa_gui[] = {
/* columns rows colors chars-per-pixel */
"32 32 186 2 ",
"   c black",
".  c #070707",
"X  c #090909",
"o  c gray6",
"O  c #101010",
"+  c gray9",
"@  c #181818",
"#  c gray10",
"$  c #1D1D1D",
"%  c #1E1E1E",
"&  c gray12",
"*  c #202020",
"=  c gray13",
"-  c #222222",
";  c #232323",
":  c gray14",
">  c #252525",
",  c gray15",
"<  c #272727",
"1  c #282828",
"2  c gray16",
"3  c #2A2A2A",
"4  c gray17",
"5  c #2C2C2C",
"6  c #2D2D2D",
"7  c gray18",
"8  c #2F2F2F",
"9  c gray19",
"0  c #313131",
"q  c #323232",
"w  c gray20",
"e  c #343434",
"r  c #353535",
"t  c gray21",
"y  c #373737",
"u  c gray22",
"i  c #393939",
"p  c #3A3A3A",
"a  c gray23",
"s  c #3C3C3C",
"d  c gray24",
"f  c #3E3E3E",
"g  c #3F3F3F",
"h  c gray25",
"j  c #414141",
"k  c gray26",
"l  c #434343",
"z  c #444444",
"x  c gray27",
"c  c #464646",
"v  c gray28",
"b  c #484848",
"n  c #494949",
"m  c gray29",
"M  c #4B4B4B",
"N  c #4C4C4C",
"B  c gray30",
"V  c #4E4E4E",
"C  c gray31",
"Z  c #505050",
"A  c #515151",
"S  c gray32",
"D  c #535353",
"F  c gray33",
"G  c #555555",
"H  c #565656",
"J  c gray34",
"K  c #585858",
"L  c gray35",
"P  c #5B5B5B",
"I  c gray36",
"U  c #5D5D5D",
"Y  c gray37",
"T  c #5F5F5F",
"R  c #606060",
"E  c gray38",
"W  c #626262",
"Q  c gray39",
"!  c #646464",
"~  c #656565",
"^  c gray40",
"/  c #676767",
"(  c #686868",
")  c DimGray",
"_  c #6A6A6A",
"`  c gray42",
"'  c #6C6C6C",
"]  c gray43",
"[  c #6F6F6F",
"{  c gray44",
"}  c #717171",
"|  c #727272",
" . c gray45",
".. c #747474",
"X. c gray46",
"o. c #767676",
"O. c #777777",
"+. c gray47",
"@. c #797979",
"#. c gray48",
"$. c #7B7B7B",
"%. c #7C7C7C",
"&. c gray49",
"*. c #7E7E7E",
"=. c gray50",
"-. c #808080",
";. c #818181",
":. c gray51",
">. c #838383",
",. c gray52",
"<. c #868686",
"1. c #888888",
"2. c #898989",
"3. c gray54",
"4. c gray55",
"5. c #8E8E8E",
"6. c #929292",
"7. c #939393",
"8. c gray58",
"9. c #959595",
"0. c #979797",
"q. c #989898",
"w. c #9A9A9A",
"e. c gray61",
"r. c #9D9D9D",
"t. c gray62",
"y. c gray63",
"u. c gray64",
"i. c #A4A4A4",
"p. c #A7A7A7",
"a. c gray66",
"s. c #A9A9A9",
"d. c #AFAFAF",
"f. c gray69",
"g. c #B2B2B2",
"h. c gray71",
"j. c gray72",
"k. c #B9B9B9",
"l. c gray73",
"z. c #BBBBBB",
"x. c #BCBCBC",
"c. c gray74",
"v. c gray",
"b. c gray77",
"n. c gray78",
"m. c gray79",
"M. c #CACACA",
"N. c #CBCBCB",
"B. c #CDCDCD",
"V. c gray81",
"C. c #D0D0D0",
"Z. c #D2D2D2",
"A. c LightGray",
"S. c gray84",
"D. c #D7D7D7",
"F. c #D8D8D8",
"G. c gray85",
"H. c gray87",
"J. c #DFDFDF",
"K. c gray88",
"L. c #E2E2E2",
"P. c gray90",
"I. c gray91",
"U. c #E9E9E9",
"Y. c #EAEAEA",
"T. c gray92",
"R. c #ECECEC",
"E. c gray93",
"W. c #EEEEEE",
"Q. c #EFEFEF",
"!. c gray94",
"~. c #F1F1F1",
"^. c gray95",
"/. c #F3F3F3",
"(. c #F4F4F4",
"). c #F6F6F6",
"_. c gray97",
"`. c #F8F8F8",
"'. c #F9F9F9",
"]. c gray98",
"[. c #FBFBFB",
"{. c gray99",
"}. c #FDFDFD",
"|. c #FEFEFE",
" X c gray100",
".X c None",
/* pixels */
".X.X.X.Xp h h c B Z J P T T W / ` '  . .X.$.*.;.;.*. .W .X.X.X.X",
".X.X.Xr p c B c r 2 2 2 < % + o o + % < 2 2 2 r c P W  ./ .X.X.X",
".X.X0 p B h 0 < 8 r p h b Z W ' ` T Z b h p r 8 < 0 h B / T .X.X",
".X0 8 c h Z W '  .X.$.<.z.Z.P._.].P.V.z.2.$.X.' ` T Z c c T c .X",
".X8 d d B T / `  .$.x.]. X X X X X X X X_.z.$.' ` / T B d B b .X",
".X2 d 0 P W W ` 9._. X X X X X X X X X X X X~.e./ W T J 0 c b .X",
".X< 0 2 J T T 6.]. X X XI.g.e.2.2.e.j.I. X X X X6.T T J 2 0 c .X",
".X< < 0 Z J 2.]. X XQ.y.'  . . . . .' ' i.Q. X X].2.J Z 8 < h .X",
".X< * 0 B T _. X XI. ./ / ` 2.z.x.2.` / /  .I. X X_.T B 0 * h .X",
".X2 * r b s. X XI.` P T x.~. X X X XQ.x.W P ' Q. X Xs.b 0 * d .X",
".X2 * r Z _. X X5.Z Z j. X X X X X X X Xz.Z Z 2. X X~.B r * r .X",
".X2 * r 9. X XJ.b b ;. X X X~.x.z.Q. X X X;.b b J. X X9.r * r .X",
".X8 * 0 j. X X5.h J Q. X Xn.b b c b n. X XQ.Z h 5. X Xz.0 * 0 .X",
".X2 * < Z. X X` r  . X XI.B c 9.e.h B I. X XX.p /  X XZ.< * 8 .X",
".X8 * * ~. X Xh 0 `  X XN.r $. X X$.p N. X X` 0 h  X XQ.* * 2 .X",
".X8 * * ]. X Xr 8 W  X XN.8 J ]._.J 8 V. X XT 8 0  X X].< * < .X",
".X8 < * D. X XP * T  X X].Z < p r < B ]. X XJ * J  X XG.* * < .X",
".X0 * * d. X X*.< 2 D. X XK.p r r d K. X XG.8 < *. X Xd.* * * .X",
".X0 * < <. X XZ.< < c _. X Xy.B B e. X X~.c < < V. X X2.< * % .X",
".Xr * * p ]. X X' < < $. X Xe./ ` i. X X .2 < `  X X].d * * % .X",
".Xr * * * e. X XJ.r 8 p / <./ $.$./ 5. .p 8 r J. X Xe.* * * % .X",
".Xr * < < r _. X XG.h p b P / '  ./ P b d h D. X X_.r < < * % .X",
".Xr * * < * X.]. X XJ.b b P W / / W J B B K. X X X .< * * < % .X",
".Xp * < * * <  . X X X<.b Z P W T P Z b 6. X X]. .* < * * * % .X",
".Xp 2 * * * < < ' ~.I.P h B J J J J B c /  X_./ < * < * * < * .X",
".Xr p * < * < * < 2 p p h b B Z B B b h r p p < < * * * * 8 * .X",
".X* h 0 * < * * * 2 8 r d h c b b c h d r 8 < * * * < * 8 < % .X",
".X  d c 8 * * < < * < 0 r d d h h d p r 8 < < < < * * 8 8 *   .X",
".X.XX h B p 2 * * < * * < < 2 8 8 2 < < * < * * * 8 p r < . .X.X",
".X.X.X  < c Z P T W / ` ` '  .X.$.$.*.;.<.<.*.X.' Z d %   .X.X.X",
".X.X.X.X                                                .X.X.X.X",
".X.X.X.X.X.X.X.X.X.X.X.X.X.X.X.X.X.X.X.X.X.X.X.X.X.X.X.X.X.X.X.X"
};
